<svg xmlns="http://www.w3.org/2000/svg" viewBox="0 0 680 424" font-family="ui-sans-serif, system-ui, -apple-system, sans-serif">
  <rect x="0" y="0" width="680" height="424" rx="16" fill="#16161e" />
  <text x="24" y="30" font-size="14" font-weight="600" fill="#e8eaf0" text-anchor="start">Before and after the two retrieval changes</text>
  <text x="24" y="50" font-size="11" font-weight="400" fill="#b0b4c0" text-anchor="start">Gray is before, teal is after. Axis starts at 0.70. MemPalace scores</text>
  <text x="24" y="65" font-size="11" font-weight="400" fill="#b0b4c0" text-anchor="start">0.967 on the preference category.</text>
  <path d="M34.33333333333333,360.0 L34.33333333333333,337.38 Q34.33333333333333,333.38 38.33333333333333,333.38 L104.33333333333333,333.38 Q108.33333333333333,333.38 108.33333333333333,337.38 L108.33333333333333,360.0 Z" fill="#7e8494" />
  <text x="71.33333333333333" y="325.38" font-size="13" font-weight="600" fill="#e8eaf0" text-anchor="middle">0.733</text>
  <path d="M118.33333333333333,360.0 L118.33333333333333,256.71333333333337 Q118.33333333333333,252.71333333333334 122.33333333333333,252.71333333333334 L188.33333333333331,252.71333333333334 Q192.33333333333331,252.71333333333334 192.33333333333331,256.71333333333337 L192.33333333333331,360.0 Z" fill="#1f9bb8" />
  <text x="155.33333333333331" y="244.71333333333334" font-size="13" font-weight="600" fill="#e8eaf0" text-anchor="middle">0.833</text>
  <text x="113.33333333333333" y="380" font-size="11.5" font-weight="600" fill="#b0b4c0" text-anchor="middle">Preference category</text>
  <text x="113.33333333333333" y="396" font-size="10" font-weight="400" fill="#7e8494" text-anchor="middle">LongMemEval, fusion guard</text>
  <path d="M261.0,360.0 L261.0,249.45333333333332 Q261.0,245.45333333333332 265.0,245.45333333333332 L331.0,245.45333333333332 Q335.0,245.45333333333332 335.0,249.45333333333332 L335.0,360.0 Z" fill="#7e8494" />
  <text x="298.0" y="237.45333333333332" font-size="13" font-weight="600" fill="#e8eaf0" text-anchor="middle">0.842</text>
  <path d="M345.0,360.0 L345.0,226.86666666666665 Q345.0,222.86666666666665 349.0,222.86666666666665 L415.0,222.86666666666665 Q419.0,222.86666666666665 419.0,226.86666666666665 L419.0,360.0 Z" fill="#1f9bb8" />
  <text x="382.0" y="214.86666666666665" font-size="13" font-weight="600" fill="#e8eaf0" text-anchor="middle">0.870</text>
  <text x="340.0" y="380" font-size="11.5" font-weight="600" fill="#b0b4c0" text-anchor="middle">Probe MRR</text>
  <text x="340.0" y="396" font-size="10" font-weight="400" fill="#7e8494" text-anchor="middle">live store, write-time queries</text>
  <path d="M487.66666666666663,360.0 L487.66666666666663,155.88000000000002 Q487.66666666666663,151.88000000000002 491.66666666666663,151.88000000000002 L557.6666666666666,151.88000000000002 Q561.6666666666666,151.88000000000002 561.6666666666666,155.88000000000002 L561.6666666666666,360.0 Z" fill="#7e8494" />
  <text x="524.6666666666666" y="143.88000000000002" font-size="13" font-weight="600" fill="#e8eaf0" text-anchor="middle">0.958</text>
  <path d="M571.6666666666666,360.0 L571.6666666666666,147.81333333333336 Q571.6666666666666,143.81333333333336 575.6666666666666,143.81333333333336 L641.6666666666666,143.81333333333336 Q645.6666666666666,143.81333333333336 645.6666666666666,147.81333333333336 L645.6666666666666,360.0 Z" fill="#1f9bb8" />
  <text x="608.6666666666666" y="135.81333333333336" font-size="13" font-weight="600" fill="#e8eaf0" text-anchor="middle">0.968</text>
  <text x="566.6666666666666" y="380" font-size="11.5" font-weight="600" fill="#b0b4c0" text-anchor="middle">Recall@5</text>
  <text x="566.6666666666666" y="396" font-size="10" font-weight="400" fill="#7e8494" text-anchor="middle">LongMemEval, fusion guard</text>
</svg>
